<svg width="10" height="10" viewBox="0 0 10 10" fill="none" xmlns="http://www.w3.org/2000/svg">
<path d="M0.484375 5.13672C0.282552 4.88281 0.282552 4.62891 0.484375 4.375L3.49219 0.605469C3.67448 0.377604 3.86979 0.345052 4.07812 0.507812L4.9375 1.19141C5.11328 1.33464 5.10026 1.52995 4.89844 1.77734L2.48633 4.75586L4.89844 7.73438C5.10026 7.98177 5.11328 8.17708 4.9375 8.32031L4.07812 9.00391C3.86979 9.16667 3.67448 9.13411 3.49219 8.90625L0.484375 5.13672ZM4.41016 5.13672C4.20833 4.88281 4.20833 4.62891 4.41016 4.375L7.41797 0.605469C7.60026 0.377604 7.79557 0.345052 8.00391 0.507812L8.86328 1.19141C9.03906 1.33464 9.02604 1.52995 8.82422 1.77734L6.41211 4.75586L8.82422 7.73438C9.02604 7.98177 9.03906 8.17708 8.86328 8.32031L8.00391 9.00391C7.79557 9.16667 7.60026 9.13411 7.41797 8.90625L4.41016 5.13672Z" fill="black"/>
</svg>
